<svg xmlns="http://www.w3.org/2000/svg" xmlns:xlink="http://www.w3.org/1999/xlink" xmlns:s="https://github.com/nturley/netlistsvg" width="506" height="340.5">
  <style>svg {
    stroke:#000;
    fill:none;
  }
  text {
    fill:#000;
    stroke:none;
    font-size:10px;
    font-weight: bold;
    font-family: "Courier New", monospace;
  }
  .nodelabel {
    text-anchor: middle;
  }
  .inputPortLabel {
    text-anchor: end;
  }
  .splitjoinBody {
    fill:#000;
  }</style>
  <g s:type="generic" transform="translate(375,145.5)" s:width="30" s:height="40" id="cell_i_dispmux">
    <text x="15" y="-4" class="nodelabel cell_i_dispmux" s:attribute="ref">dispmux</text>
    <rect width="30" height="160" s:generic="body" class="cell_i_dispmux"/>
    <g transform="translate(0,10)" s:x="0" s:y="10" s:pid="in0" id="port_i_dispmux~a">
      <text x="-3" y="-4" class="inputPortLabel cell_i_dispmux">a</text>
    </g>
    <g transform="translate(0,30)" s:x="0" s:y="10" s:pid="in0" id="port_i_dispmux~b">
      <text x="-3" y="-4" class="inputPortLabel cell_i_dispmux">b</text>
    </g>
    <g transform="translate(0,50)" s:x="0" s:y="10" s:pid="in0" id="port_i_dispmux~c">
      <text x="-3" y="-4" class="inputPortLabel cell_i_dispmux">c</text>
    </g>
    <g transform="translate(0,70)" s:x="0" s:y="10" s:pid="in0" id="port_i_dispmux~clk">
      <text x="-3" y="-4" class="inputPortLabel cell_i_dispmux">clk</text>
    </g>
    <g transform="translate(0,90)" s:x="0" s:y="10" s:pid="in0" id="port_i_dispmux~d">
      <text x="-3" y="-4" class="inputPortLabel cell_i_dispmux">d</text>
    </g>
    <g transform="translate(0,110)" s:x="0" s:y="10" s:pid="in0" id="port_i_dispmux~dpi">
      <text x="-3" y="-4" class="inputPortLabel cell_i_dispmux">dpi</text>
    </g>
    <g transform="translate(0,130)" s:x="0" s:y="10" s:pid="in0" id="port_i_dispmux~rst">
      <text x="-3" y="-4" class="inputPortLabel cell_i_dispmux">rst</text>
    </g>
    <g transform="translate(0,150)" s:x="0" s:y="10" s:pid="in0" id="port_i_dispmux~tick">
      <text x="-3" y="-4" class="inputPortLabel cell_i_dispmux">tick</text>
    </g>
    <g transform="translate(30,10)" s:x="30" s:y="10" s:pid="out0" id="port_i_dispmux~an">
      <text x="5" y="-4" style="fill:#000; stroke:none" class="cell_i_dispmux">an</text>
    </g>
    <g transform="translate(30,30)" s:x="30" s:y="10" s:pid="out0" id="port_i_dispmux~dpo">
      <text x="5" y="-4" style="fill:#000; stroke:none" class="cell_i_dispmux">dpo</text>
    </g>
    <g transform="translate(30,50)" s:x="30" s:y="10" s:pid="out0" id="port_i_dispmux~seg">
      <text x="5" y="-4" style="fill:#000; stroke:none" class="cell_i_dispmux">seg</text>
    </g>
  </g>
  <g s:type="generic" transform="translate(248,109)" s:width="30" s:height="40" id="cell_i_fsm">
    <text x="15" y="-4" class="nodelabel cell_i_fsm" s:attribute="ref">fsm</text>
    <rect width="30" height="100" s:generic="body" class="cell_i_fsm"/>
    <g transform="translate(0,10)" s:x="0" s:y="10" s:pid="in0" id="port_i_fsm~clk">
      <text x="-3" y="-4" class="inputPortLabel cell_i_fsm">clk</text>
    </g>
    <g transform="translate(0,30)" s:x="0" s:y="10" s:pid="in0" id="port_i_fsm~hdsensoren">
      <text x="-3" y="-4" class="inputPortLabel cell_i_fsm">hdsensoren</text>
    </g>
    <g transform="translate(0,50)" s:x="0" s:y="10" s:pid="in0" id="port_i_fsm~ldrs">
      <text x="-3" y="-4" class="inputPortLabel cell_i_fsm">ldrs</text>
    </g>
    <g transform="translate(0,70)" s:x="0" s:y="10" s:pid="in0" id="port_i_fsm~rst">
      <text x="-3" y="-4" class="inputPortLabel cell_i_fsm">rst</text>
    </g>
    <g transform="translate(0,90)" s:x="0" s:y="10" s:pid="in0" id="port_i_fsm~tick">
      <text x="-3" y="-4" class="inputPortLabel cell_i_fsm">tick</text>
    </g>
    <g transform="translate(30,10)" s:x="30" s:y="10" s:pid="out0" id="port_i_fsm~motor">
      <text x="5" y="-4" style="fill:#000; stroke:none" class="cell_i_fsm">motor</text>
    </g>
  </g>
  <g s:type="generic" transform="translate(96,189)" s:width="30" s:height="40" id="cell_i_tickgen">
    <text x="15" y="-4" class="nodelabel cell_i_tickgen" s:attribute="ref">tickgen_50</text>
    <rect width="30" height="40" s:generic="body" class="cell_i_tickgen"/>
    <g transform="translate(0,10)" s:x="0" s:y="10" s:pid="in0" id="port_i_tickgen~clk">
      <text x="-3" y="-4" class="inputPortLabel cell_i_tickgen">clk</text>
    </g>
    <g transform="translate(0,30)" s:x="0" s:y="10" s:pid="in0" id="port_i_tickgen~rst">
      <text x="-3" y="-4" class="inputPortLabel cell_i_tickgen">rst</text>
    </g>
    <g transform="translate(30,10)" s:x="30" s:y="10" s:pid="out0" id="port_i_tickgen~tick">
      <text x="5" y="-4" style="fill:#000; stroke:none" class="cell_i_tickgen">tick</text>
    </g>
  </g>
  <g s:type="generic" transform="translate(238.33333333333334,285.5)" s:width="30" s:height="40" id="cell_i_tickseg">
    <text x="15" y="-4" class="nodelabel cell_i_tickseg" s:attribute="ref">tickseg_250000</text>
    <rect width="30" height="40" s:generic="body" class="cell_i_tickseg"/>
    <g transform="translate(0,10)" s:x="0" s:y="10" s:pid="in0" id="port_i_tickseg~clk">
      <text x="-3" y="-4" class="inputPortLabel cell_i_tickseg">clk</text>
    </g>
    <g transform="translate(0,30)" s:x="0" s:y="10" s:pid="in0" id="port_i_tickseg~rst">
      <text x="-3" y="-4" class="inputPortLabel cell_i_tickseg">rst</text>
    </g>
    <g transform="translate(30,10)" s:x="30" s:y="10" s:pid="out0" id="port_i_tickseg~tick">
      <text x="5" y="-4" style="fill:#000; stroke:none" class="cell_i_tickseg">tick</text>
    </g>
  </g>
  <g s:type="inputExt" transform="translate(12,189.5)" s:width="30" s:height="20" id="cell_clk">
    <text x="15" y="-4" class="nodelabel cell_clk" s:attribute="ref">clk</text>
    <s:alias val="$_inputExt_"/>
    <path d="M0,0 L0,20 L15,20 L30,10 L15,0 Z" class="cell_clk"/>
    <g s:x="28" s:y="10" s:pid="Y"/>
  </g>
  <g s:type="inputExt" transform="translate(12,254.5)" s:width="30" s:height="20" id="cell_rst">
    <text x="15" y="-4" class="nodelabel cell_rst" s:attribute="ref">rst</text>
    <s:alias val="$_inputExt_"/>
    <path d="M0,0 L0,20 L15,20 L30,10 L15,0 Z" class="cell_rst"/>
    <g s:x="28" s:y="10" s:pid="Y"/>
  </g>
  <g s:type="inputExt" transform="translate(92,73)" s:width="30" s:height="20" id="cell_HDSensoren">
    <text x="15" y="-4" class="nodelabel cell_HDSensoren" s:attribute="ref">HDSensoren</text>
    <s:alias val="$_inputExt_"/>
    <path d="M0,0 L0,20 L15,20 L30,10 L15,0 Z" class="cell_HDSensoren"/>
    <g s:x="28" s:y="10" s:pid="Y"/>
  </g>
  <g s:type="inputExt" transform="translate(92,138)" s:width="30" s:height="20" id="cell_LDRs">
    <text x="15" y="-4" class="nodelabel cell_LDRs" s:attribute="ref">LDRs</text>
    <s:alias val="$_inputExt_"/>
    <path d="M0,0 L0,20 L15,20 L30,10 L15,0 Z" class="cell_LDRs"/>
    <g s:x="28" s:y="10" s:pid="Y"/>
  </g>
  <g s:type="outputExt" transform="translate(464,231)" s:width="30" s:height="20" id="cell_seg">
    <text x="15" y="-4" class="nodelabel cell_seg" s:attribute="ref">seg</text>
    <s:alias val="$_outputExt_"/>
    <path d="M30,0 L30,20 L15,20 L0,10 L15,0 Z" class="cell_seg"/>
    <g s:x="0" s:y="10" s:pid="A"/>
  </g>
  <g s:type="outputExt" transform="translate(464,101)" s:width="30" s:height="20" id="cell_an">
    <text x="15" y="-4" class="nodelabel cell_an" s:attribute="ref">an</text>
    <s:alias val="$_outputExt_"/>
    <path d="M30,0 L30,20 L15,20 L0,10 L15,0 Z" class="cell_an"/>
    <g s:x="0" s:y="10" s:pid="A"/>
  </g>
  <g s:type="outputExt" transform="translate(464,166)" s:width="30" s:height="20" id="cell_dpo">
    <text x="15" y="-4" class="nodelabel cell_dpo" s:attribute="ref">dpo</text>
    <s:alias val="$_outputExt_"/>
    <path d="M30,0 L30,20 L15,20 L0,10 L15,0 Z" class="cell_dpo"/>
    <g s:x="0" s:y="10" s:pid="A"/>
  </g>
  <g s:type="constant" transform="translate(248,22)" s:width="30" s:height="20" id="cell_0000">
    <text x="15" y="-4" class="nodelabel cell_0000" s:attribute="ref">0x0</text>
    <s:alias val="$_constant_"/>
    <rect width="30" height="20" class="cell_0000"/>
    <g s:x="30" s:y="10" s:pid="Y"/>
  </g>
  <line x1="278" x2="340" y1="32" y2="32" class="net_28,29,30,31"/>
  <line x1="340" x2="340" y1="32" y2="156" class="net_28,29,30,31"/>
  <circle cx="340" cy="156" r="2" style="fill:#000" class="net_28,29,30,31"/>
  <line x1="340" x2="375" y1="156" y2="156" class="net_28,29,30,31"/>
  <line x1="278" x2="340" y1="32" y2="32" class="net_28,29,30,31"/>
  <line x1="340" x2="340" y1="32" y2="176" class="net_28,29,30,31"/>
  <circle cx="340" cy="176" r="2" style="fill:#000" class="net_28,29,30,31"/>
  <line x1="340" x2="375" y1="176" y2="176" class="net_28,29,30,31"/>
  <line x1="278" x2="340" y1="32" y2="32" class="net_28,29,30,31"/>
  <line x1="340" x2="340" y1="32" y2="196" class="net_28,29,30,31"/>
  <circle cx="340" cy="196" r="2" style="fill:#000" class="net_28,29,30,31"/>
  <line x1="340" x2="375" y1="196" y2="196" class="net_28,29,30,31"/>
  <line x1="278" x2="340" y1="32" y2="32" class="net_28,29,30,31"/>
  <line x1="340" x2="340" y1="32" y2="256" class="net_28,29,30,31"/>
  <line x1="340" x2="375" y1="256" y2="256" class="net_28,29,30,31"/>
  <line x1="40" x2="52" y1="199.5" y2="199.5" class="net_2"/>
  <line x1="52" x2="52" y1="199.5" y2="52" class="net_2"/>
  <line x1="52" x2="330" y1="52" y2="52" class="net_2"/>
  <line x1="330" x2="330" y1="52" y2="216" class="net_2"/>
  <circle cx="52" cy="199.5" r="2" style="fill:#000" class="net_2"/>
  <line x1="330" x2="375" y1="216" y2="216" class="net_2"/>
  <line x1="40" x2="52" y1="199.5" y2="199.5" class="net_2"/>
  <line x1="52" x2="52" y1="199.5" y2="52" class="net_2"/>
  <line x1="52" x2="172" y1="52" y2="52" class="net_2"/>
  <line x1="172" x2="172" y1="52" y2="119.5" class="net_2"/>
  <circle cx="172" cy="52" r="2" style="fill:#000" class="net_2"/>
  <line x1="172" x2="248" y1="119.5" y2="119.5" class="net_2"/>
  <line x1="40" x2="96" y1="199.5" y2="199.5" class="net_2"/>
  <line x1="40" x2="52" y1="199.5" y2="199.5" class="net_2"/>
  <line x1="52" x2="52" y1="199.5" y2="296" class="net_2"/>
  <line x1="52" x2="238.33333333333334" y1="296" y2="296" class="net_2"/>
  <line x1="279" x2="320" y1="119.5" y2="119.5" class="net_22,23,24,25"/>
  <line x1="320" x2="320" y1="119.5" y2="236" class="net_22,23,24,25"/>
  <line x1="320" x2="375" y1="236" y2="236" class="net_22,23,24,25"/>
  <line x1="40" x2="320" y1="264.5" y2="264.5" class="net_3"/>
  <line x1="320" x2="320" y1="264.5" y2="276" class="net_3"/>
  <line x1="320" x2="375" y1="276" y2="276" class="net_3"/>
  <line x1="40" x2="62" y1="264.5" y2="264.5" class="net_3"/>
  <line x1="62" x2="62" y1="264.5" y2="168" class="net_3"/>
  <line x1="62" x2="162" y1="168" y2="168" class="net_3"/>
  <line x1="162" x2="162" y1="168" y2="179.5" class="net_3"/>
  <circle cx="62" cy="264.5" r="2" style="fill:#000" class="net_3"/>
  <line x1="162" x2="248" y1="179.5" y2="179.5" class="net_3"/>
  <line x1="40" x2="62" y1="264.5" y2="264.5" class="net_3"/>
  <line x1="62" x2="62" y1="264.5" y2="219.5" class="net_3"/>
  <circle cx="62" cy="219.5" r="2" style="fill:#000" class="net_3"/>
  <line x1="62" x2="96" y1="219.5" y2="219.5" class="net_3"/>
  <line x1="40" x2="62" y1="264.5" y2="264.5" class="net_3"/>
  <line x1="62" x2="62" y1="264.5" y2="316" class="net_3"/>
  <line x1="62" x2="238.33333333333334" y1="316" y2="316" class="net_3"/>
  <line x1="269.33333333333337" x2="375" y1="296" y2="296" class="net_26"/>
  <line x1="120" x2="162" y1="83" y2="83" class="net_4,5,6,7"/>
  <line x1="162" x2="162" y1="83" y2="139.5" class="net_4,5,6,7"/>
  <line x1="162" x2="248" y1="139.5" y2="139.5" class="net_4,5,6,7"/>
  <line x1="120" x2="162" y1="148" y2="148" class="net_8,9"/>
  <line x1="162" x2="162" y1="148" y2="159.5" class="net_8,9"/>
  <line x1="162" x2="248" y1="159.5" y2="159.5" class="net_8,9"/>
  <line x1="127" x2="248" y1="199.5" y2="199.5" class="net_27"/>
  <line x1="406" x2="439" y1="196" y2="196" class="net_10,11,12,13,14,15,16"/>
  <line x1="439" x2="439" y1="196" y2="241" class="net_10,11,12,13,14,15,16"/>
  <line x1="439" x2="464" y1="241" y2="241" class="net_10,11,12,13,14,15,16"/>
  <line x1="406" x2="439" y1="156" y2="156" class="net_17,18,19,20"/>
  <line x1="439" x2="439" y1="156" y2="111" class="net_17,18,19,20"/>
  <line x1="439" x2="464" y1="111" y2="111" class="net_17,18,19,20"/>
  <line x1="406" x2="464" y1="176" y2="176" class="net_21"/>
</svg>
